%TF.GenerationSoftware,Altium Limited,Altium Designer,26.9.1 (10)*%
G04 Layer_Color=8421504*
G04 Board_Origin=29921260|11220472*
%FSLAX45Y45*%
%MOMM*%
%TF.SameCoordinates,716884D2-FB8B-4858-B2CA-AE4869691BB4*%
%TF.FilePolarity,Positive*%
%TF.FileFunction,Paste,Top*%
%TF.Part,Single*%
G01*
G75*
%TA.AperFunction,SMDPad,CuDef*%
%ADD11R,1.40000X0.95000*%
%ADD12R,0.95000X1.40000*%
G04:AMPARAMS|DCode=13|XSize=1.1mm|YSize=0.6mm|CornerRadius=0.051mm|HoleSize=0mm|Usage=FLASHONLY|Rotation=0.000|XOffset=0mm|YOffset=0mm|HoleType=Round|Shape=RoundedRectangle|*
%AMROUNDEDRECTD13*
21,1,1.10000,0.49800,0,0,0.0*
21,1,0.99800,0.60000,0,0,0.0*
1,1,0.10200,0.49900,-0.24900*
1,1,0.10200,-0.49900,-0.24900*
1,1,0.10200,-0.49900,0.24900*
1,1,0.10200,0.49900,0.24900*
%
%ADD13ROUNDEDRECTD13*%
%ADD14R,1.50000X3.20000*%
%ADD15R,0.90000X0.80000*%
%ADD16R,1.45000X3.45000*%
%ADD17R,1.01213X1.05872*%
%ADD18R,1.20000X1.60000*%
%ADD19R,1.05872X1.01213*%
%ADD20R,1.36213X1.10464*%
%ADD21R,2.41300X3.42900*%
%ADD22R,1.60000X1.05000*%
D11*
X3800000Y2507500D02*
D03*
Y2692500D02*
D03*
D12*
X4254644Y3500000D02*
D03*
X4069644D02*
D03*
D13*
X4419999Y3100000D02*
D03*
Y3005000D02*
D03*
Y2910000D02*
D03*
X4150000D02*
D03*
Y3005000D02*
D03*
Y3100000D02*
D03*
D14*
X2350000Y2450000D02*
D03*
X1930000D02*
D03*
D15*
X2600000Y2455000D02*
D03*
X2800000Y2550000D02*
D03*
X2600000Y2645000D02*
D03*
D16*
X5820000Y2050000D02*
D03*
X5200000D02*
D03*
D17*
X4900000Y1987671D02*
D03*
Y1812329D02*
D03*
D18*
X6165000Y2050000D02*
D03*
X6435000D02*
D03*
X1585000Y3350000D02*
D03*
X1315000D02*
D03*
D19*
X4674659Y3050000D02*
D03*
X4850000D02*
D03*
D20*
X3500000Y2550000D02*
D03*
Y2690156D02*
D03*
X3200000Y2550000D02*
D03*
Y2690156D02*
D03*
D21*
X3650000Y3500000D02*
D03*
X3065800D02*
D03*
D22*
X2500000Y3152500D02*
D03*
Y3447500D02*
D03*
X2100000Y3152500D02*
D03*
Y3447500D02*
D03*
%TF.MD5,738fcee3dfc2a5a767747f97349a2b9d*%
M02*
