%TF.GenerationSoftware,Altium Limited,Altium Designer,26.9.1 (10)*%
G04 Layer_Physical_Order=1*
G04 Layer_Color=255*
G04 Board_Origin=29921260|11220472*
%FSLAX45Y45*%
%MOMM*%
%TF.SameCoordinates,716884D2-FB8B-4858-B2CA-AE4869691BB4*%
%TF.FilePolarity,Positive*%
%TF.FileFunction,Copper,L1,Top,Signal*%
%TF.Part,Single*%
G01*
G75*
%TA.AperFunction,Conductor*%
%ADD10C,0.25400*%
%TA.AperFunction,SMDPad,CuDef*%
%ADD11R,1.40000X0.95000*%
%ADD12R,0.95000X1.40000*%
G04:AMPARAMS|DCode=13|XSize=1.1mm|YSize=0.6mm|CornerRadius=0.051mm|HoleSize=0mm|Usage=FLASHONLY|Rotation=0.000|XOffset=0mm|YOffset=0mm|HoleType=Round|Shape=RoundedRectangle|*
%AMROUNDEDRECTD13*
21,1,1.10000,0.49800,0,0,0.0*
21,1,0.99800,0.60000,0,0,0.0*
1,1,0.10200,0.49900,-0.24900*
1,1,0.10200,-0.49900,-0.24900*
1,1,0.10200,-0.49900,0.24900*
1,1,0.10200,0.49900,0.24900*
%
%ADD13ROUNDEDRECTD13*%
%ADD14R,1.50000X3.20000*%
%ADD15R,0.90000X0.80000*%
%ADD16R,1.45000X3.45000*%
%ADD17R,1.01213X1.05872*%
%ADD18R,1.20000X1.60000*%
%ADD19R,1.05872X1.01213*%
%ADD20R,1.36213X1.10464*%
%ADD21R,2.41300X3.42900*%
%ADD22R,1.60000X1.05000*%
%TA.AperFunction,ComponentPad*%
%ADD23R,2.15000X2.15000*%
%ADD24C,2.40000*%
%ADD25C,2.15000*%
%TA.AperFunction,ViaPad*%
%ADD26C,1.27000*%
D10*
X3400000Y1525401D02*
G03*
X3425400Y1500000I25401J0D01*
G01*
X6624599D02*
G03*
X6650000Y1525399I0J25401D01*
G01*
X2450000Y2724601D02*
G03*
X2424599Y2750000I-25401J-1D01*
G01*
X3509844Y2700000D02*
G03*
X3500000Y2690156I0J-9844D01*
G01*
X1930000Y1854000D02*
G03*
X1934000Y1850000I4000J0D01*
G01*
X2355000Y2455000D02*
G03*
X2350000Y2450000I0J-5000D01*
G01*
X3787857Y2550000D02*
G03*
X3800000Y2562144I0J12143D01*
G01*
D02*
G03*
X3812144Y2550000I12143J0D01*
G01*
X1302500Y3152500D02*
G03*
X1300000Y3150000I0J-2500D01*
G01*
X1315000Y3350000D02*
G03*
X1300000Y3335000I0J-15000D01*
G01*
X1600000Y3450000D02*
G03*
X1585000Y3435000I0J-15000D01*
G01*
X1600000Y3450000D02*
G03*
X1602500Y3447500I2500J0D01*
G01*
X2552500Y3500000D02*
G03*
X2500000Y3447500I0J-52500D01*
G01*
X2100000Y3152500D02*
X2500000D01*
X1302500D02*
X2100000D01*
X6450000Y1900000D02*
Y1982700D01*
X6435000Y2050000D02*
X6450000Y1982700D01*
X4900000Y1700000D02*
Y1812329D01*
X3400000Y1525401D02*
Y2400000D01*
X3425400Y1500000D02*
X6624599D01*
X6650000Y1525400D02*
Y3050000D01*
X4150000Y3100000D02*
Y3250000D01*
X2350000Y2750000D02*
X2424599D01*
X2450000Y2650000D02*
Y2724600D01*
Y2650000D02*
X2567700D01*
X2600000Y2645000D01*
X2442000Y1850000D02*
X2450000Y2150000D01*
X3200000Y2400000D02*
Y2550000D01*
Y2400000D02*
X3400000D01*
X4850000Y3050000D02*
X6650000D01*
X4900000Y2200000D02*
X5140200D01*
X5200000Y2050000D02*
Y2140200D01*
X5140200Y2200000D02*
X5200000Y2140200D01*
X4900000Y2200000D02*
Y2885121D01*
X4885121Y2900000D02*
X4900000Y2885121D01*
X4429999Y2900000D02*
X4885121D01*
X4900000Y1987671D02*
Y2200000D01*
X2600000Y2645000D02*
Y2800000D01*
X3200000D01*
Y2690156D02*
Y2800000D01*
Y2690156D02*
X3500000D01*
X3509844Y2700000D02*
X3800000D01*
Y2637856D02*
Y2700000D01*
X1930000Y1854000D02*
Y2450000D01*
X2355000Y2455000D02*
X2600000D01*
X2800000Y2550000D02*
X3200000D01*
X3500000D01*
X3787857D01*
X3812144D02*
X4150000D01*
Y2910000D01*
X1300000Y3150000D02*
Y3335000D01*
X1585000Y3350000D02*
Y3435000D01*
X1602500Y3447500D02*
X2100000D01*
X2500000D01*
X2552500Y3500000D02*
X3065800D01*
X4000000Y3000000D02*
Y3500000D01*
Y3000000D02*
X4150000D01*
Y3005000D01*
X4000000Y3500000D02*
X4124287D01*
X3650000D02*
X4000000D01*
X4200000D02*
X4400000D01*
Y3117300D02*
Y3500000D01*
Y3117300D02*
X4417300Y3100000D01*
X4419999D01*
X5820000Y2050000D02*
X6165000D01*
X4419999Y2910000D02*
X4429999Y2900000D01*
X4672329Y3050000D02*
X4674659D01*
X4627330Y3005000D02*
X4672329Y3050000D01*
X4419999Y3005000D02*
X4627330D01*
D11*
X3800000Y2507500D02*
D03*
Y2692500D02*
D03*
D12*
X4254644Y3500000D02*
D03*
X4069644D02*
D03*
D13*
X4419999Y3100000D02*
D03*
Y3005000D02*
D03*
Y2910000D02*
D03*
X4150000D02*
D03*
Y3005000D02*
D03*
Y3100000D02*
D03*
D14*
X2350000Y2450000D02*
D03*
X1930000D02*
D03*
D15*
X2600000Y2455000D02*
D03*
X2800000Y2550000D02*
D03*
X2600000Y2645000D02*
D03*
D16*
X5820000Y2050000D02*
D03*
X5200000D02*
D03*
D17*
X4900000Y1987671D02*
D03*
Y1812329D02*
D03*
D18*
X6165000Y2050000D02*
D03*
X6435000D02*
D03*
X1585000Y3350000D02*
D03*
X1315000D02*
D03*
D19*
X4674659Y3050000D02*
D03*
X4850000D02*
D03*
D20*
X3500000Y2550000D02*
D03*
Y2690156D02*
D03*
X3200000Y2550000D02*
D03*
Y2690156D02*
D03*
D21*
X3650000Y3500000D02*
D03*
X3065800D02*
D03*
D22*
X2500000Y3152500D02*
D03*
Y3447500D02*
D03*
X2100000Y3152500D02*
D03*
Y3447500D02*
D03*
D23*
X1934000Y1850000D02*
D03*
D24*
X2950000Y1600000D02*
D03*
X1426000D02*
D03*
D25*
X2442000Y1850000D02*
D03*
D26*
X2300000Y3100000D02*
D03*
X2350000Y2750000D02*
D03*
X6450000Y1850000D02*
D03*
X4900000Y1650000D02*
D03*
X4150000Y3300000D02*
D03*
X2450000Y2150000D02*
D03*
%TF.MD5,834e26515b7de484978ae8315ea56e55*%
M02*
